<svg id="Layer_1" data-name="Layer 1" xmlns="http://www.w3.org/2000/svg" viewBox="0 0 120.9 34.4"><g id="Layer_1-2" data-name="Layer 1"><path d="M40.5,6.2h5.4a5.91,5.91,0,0,1,4.6,1.6c1.2,1.1,1.6,2.5,1.6,5.2a7.38,7.38,0,0,1-1,4.4c-1,1.4-2.6,2.3-5.2,2.3H44.1v8.6H40.5Zm3.6,10.5h1.7c2.9,0,2.9-1.5,2.9-3.7s0-3.8-2.8-3.8H44v7.5Z"></path><path d="M57.2,6.1h3l5.6,22.2H62.2l-1.1-4.7H56.2l-1.1,4.7H51.5Zm1.5,6.6h0l-1.8,8h3.6Z"></path><path d="M66.9,11.5c0-3.6,3.1-5.3,6-5.3s6,1.8,6,5.3v1.1H75.3V11.5a2.41,2.41,0,0,0-4.8,0V23a2.41,2.41,0,0,0,4.8,0V18.9H72.5V16.1h6.4V23c0,3.6-3.1,5.3-6,5.3s-6-1.8-6-5.3Z"></path><path d="M81.7,6.1H92.4v3H85.3v6.5h6.2v3H85.3v6.5h7.1v3.2H81.7Z"></path><path d="M94.3,6.1h3.6v19H105v3.2H94.3Z"></path><path d="M107.1,18.9,102.2,6.1H106l2.9,8.8h.1l2.9-8.8h3.8l-4.9,12.8v9.4h-3.6V18.9Z"></path><path d="M119.2,6.1a1.75,1.75,0,0,1,1.7,1.7,1.7,1.7,0,1,1-3.4,0A1.75,1.75,0,0,1,119.2,6.1Zm0,.3a1.35,1.35,0,0,0-1.3,1.4,1.3,1.3,0,1,0,2.6,0A1.35,1.35,0,0,0,119.2,6.4Zm-.6.4h.7c.5,0,.7.2.7.6s-.2.5-.5.5l.6.9h-.4l-.6-.8h-.2v.8h-.3Zm.3.9h.3c.3,0,.5-.1.5-.3s-.1-.3-.4-.3h-.4Z"></path><path d="M19.9,13a2.26,2.26,0,0,0-2.3-2.3H14.5v4.6h3.1A2.26,2.26,0,0,0,19.9,13Z"></path><path d="M17.6,7.7H11.5V26.8H13V9.2h4.6a3.8,3.8,0,0,1,0,7.6H14.5v9.9H16V18.3h1.5a5.38,5.38,0,0,0,5.4-5.4A5.13,5.13,0,0,0,17.6,7.7Z"></path><path d="M0,0V34.4H34.4V0ZM17.6,19.9v8.4H9.9V6.1h7.7a6.9,6.9,0,0,1,0,13.8Z"></path></g> </svg>
